<?xml version="1.0" encoding="UTF-8"?>
<svg xmlns="http://www.w3.org/2000/svg" xmlns:xlink="http://www.w3.org/1999/xlink" width="16px" height="16px" viewBox="0 0 16 16" version="1.1">
<g id="surface1">
<path style=" stroke:none;fill-rule:nonzero;fill:rgb(0%,0%,0%);fill-opacity:1;" d="M 8 0.125 C 3.664062 0.125 0.125 3.664062 0.125 8 C 0.125 12.335938 3.664062 15.875 8 15.875 C 12.335938 15.875 15.875 12.335938 15.875 8 C 15.875 3.664062 12.335938 0.125 8 0.125 Z M 8 14.875 C 4.210938 14.875 1.125 11.789062 1.125 8 C 1.125 4.210938 4.210938 1.125 8 1.125 C 11.789062 1.125 14.875 4.210938 14.875 8 C 14.875 11.789062 11.789062 14.875 8 14.875 Z M 8 14.875 "/>
<path style=" stroke:none;fill-rule:nonzero;fill:rgb(0%,0%,0%);fill-opacity:1;" d="M 7.5 6.8125 L 8.5 6.8125 L 8.5 11.8125 L 7.5 11.8125 Z M 7.5 6.8125 "/>
<path style=" stroke:none;fill-rule:nonzero;fill:rgb(0%,0%,0%);fill-opacity:1;" d="M 7.5 4.4375 L 8.5 4.4375 L 8.5 5.4375 L 7.5 5.4375 Z M 7.5 4.4375 "/>
</g>
</svg>
