<?xml version="1.0" encoding="UTF-8"?>
<svg xmlns="http://www.w3.org/2000/svg" xmlns:xlink="http://www.w3.org/1999/xlink" width="10px" height="10px" viewBox="0 0 10 10" version="1.1">
<g id="surface1">
<path style="fill-rule:nonzero;fill:rgb(50.196081%,50.196081%,50.196081%);fill-opacity:1;stroke-width:1;stroke-linecap:butt;stroke-linejoin:miter;stroke:rgb(50.196081%,50.196081%,50.196081%);stroke-opacity:1;stroke-miterlimit:4;" d="M 250.594011 154.300942 L 100.675886 4.382817 C 94.746192 -1.41797 85.20712 -1.41797 79.406333 4.382817 C 73.605545 10.183604 73.605545 19.722677 79.406333 25.65237 L 218.754134 165.000172 L 79.406333 304.347973 C 73.605545 310.277667 73.605545 319.816739 79.406333 325.617527 C 82.37118 328.582373 86.109465 330.000344 89.976656 330.000344 C 93.843848 330.000344 97.582133 328.582373 100.675886 325.617527 L 250.594011 175.570495 C 253.429951 172.863461 254.976828 168.99627 254.976828 165.000172 C 254.976828 161.004074 253.429951 157.136882 250.594011 154.300942 Z M 250.594011 154.300942 " transform="matrix(0.030303,0,0,0.030303,0,0)"/>
</g>
</svg>
