<?xml version="1.0" encoding="utf-8"?>
<!-- Generator: Adobe Illustrator 19.0.0, SVG Export Plug-In . SVG Version: 6.00 Build 0)  -->
<svg version="1.1" id="Layer_1" xmlns="http://www.w3.org/2000/svg" xmlns:xlink="http://www.w3.org/1999/xlink" x="0px" y="0px"
	 viewBox="0 0 512 512" style="enable-background:new 0 0 512 512;" xml:space="preserve">
<style type="text/css">
	.st0{fill:#BDC3C7;}
	.st1{fill:#ECF0F1;}
	.st2{fill:#E74C3C;}
	.st3{fill:#C0392B;}
	.st4{fill:#34495E;}
	.st5{fill:#2C3E50;}
	.st6{fill:#95A5A6;}
</style>
<g id="XMLID_1_">
	<path id="XMLID_3_" class="st0" d="M66.6,67C42.1,67,22,87.1,22,111.6v311.8c0,24.5,20.2,44.6,44.6,44.6h133.9h44.6h133.2
		c24.5,0,44.6-20.2,44.6-44.6V111.6c0-24.5-20.2-44.6-44.6-44.6H245.2h-44.6H66.6z"/>
	<path id="XMLID_4_" class="st1" d="M66.6,44.6C42.1,44.6,22,64.8,22,89.3v311.8c0,24.5,20.2,44.6,44.6,44.6h133.9h44.6h133.2
		c24.5,0,44.6-20.2,44.6-44.6V89.3c0-24.5-20.2-44.6-44.6-44.6H245.2h-44.6C200.6,44.6,66.6,44.6,66.6,44.6z"/>
	<path id="XMLID_5_" class="st2" d="M66.6,44.6C42.1,44.6,22,64.8,22,89.3v67v22.3h401.1v-22.3v-67c0-24.5-20.2-44.6-44.6-44.6
		H245.2h-44.6C200.6,44.6,66.6,44.6,66.6,44.6z"/>
	<circle id="XMLID_6_" class="st3" cx="88.9" cy="100.1" r="33.1"/>
	<circle id="XMLID_7_" class="st3" cx="356.1" cy="100.1" r="33.1"/>
	<path id="XMLID_13_" class="st0" d="M66.6,223.2v44.6h44.6v-44.6H66.6z M133.6,223.2v44.6h44.6v-44.6H133.6z M200.6,223.2v44.6
		h44.6v-44.6H200.6z M266.8,223.2v44.6h44.6v-44.6H266.8z M333.8,223.2v44.6h44.6v-44.6H333.8z"/>
	<path id="XMLID_19_" class="st0" d="M66.6,289.5v44.6h44.6v-44.6H66.6z M133.6,289.5v44.6h44.6v-44.6H133.6z M200.6,289.5v44.6
		h44.6v-44.6H200.6z M266.8,289.5v44.6h44.6v-44.6H266.8z M333.8,289.5v44.6h44.6v-44.6H333.8z"/>
	<path id="XMLID_25_" class="st0" d="M66.6,356.5v44.6h44.6v-44.6C111.3,356.5,66.6,356.5,66.6,356.5z M133.6,356.5v44.6h44.6v-44.6
		C178.2,356.5,133.6,356.5,133.6,356.5z M200.6,356.5v44.6h44.6v-44.6C245.2,356.5,200.6,356.5,200.6,356.5z M266.8,356.5v44.6h44.6
		v-44.6C311.4,356.5,266.8,356.5,266.8,356.5z M333.8,356.5v44.6h44.6v-44.6C378.4,356.5,333.8,356.5,333.8,356.5z"/>
	<circle id="XMLID_26_" class="st4" cx="367.6" cy="388.9" r="112.3"/>
	<path id="XMLID_27_" class="st5" d="M367.6,276.5c-67.7,0-122.4,55.4-122.4,122.4h20.2c0-55.4,46.1-102.3,102.3-102.3
		s102.3,46.8,102.3,102.3H490C490,332,435.3,276.5,367.6,276.5z"/>
	<path id="XMLID_28_" class="st0" d="M377.7,378.8v20.2h10.1H449c5.8,0,10.1-4.3,10.1-8.6c0-6.5-4.3-10.8-10.1-10.8h-61.2h-10.1
		V378.8z"/>
	<path id="XMLID_29_" class="st0" d="M367.6,319c-5.8,0-10.1,4.3-10.1,8.6V368v10.8h20.2V368v-40.3C377.7,323.3,373.4,319,367.6,319
		z"/>
	
		<rect id="XMLID_30_" x="300.1" y="416.9" transform="matrix(0.7071 -0.7071 0.7071 0.7071 -200.0438 361.004)" class="st3" width="71.3" height="10.1"/>
	<path id="XMLID_33_" class="st0" d="M367.6,368c-11.5,0-20.2,10.8-20.2,22.3c0,10.8,9.4,20.2,20.2,20.2c11.5,0,20.2-8.6,20.2-20.2
		C387.8,378.8,378.4,368,367.6,368z M367.6,378.8c5.8,0,10.1,4.3,10.1,10.8c0,4.3-4.3,8.6-10.1,8.6c-5.8,0-10.1-4.3-10.1-8.6
		C357.5,383.1,361.9,378.8,367.6,378.8z"/>
	<path id="XMLID_36_" class="st6" d="M367.6,267.2c-67.7,0-122.4,53.3-122.4,122.4c0,67,54.7,122.4,122.4,122.4S490,456.6,490,389.6
		C490,321.2,435.3,267.2,367.6,267.2z M367.6,287.3c56.2,0,102.3,44.6,102.3,102.3c0,55.4-46.1,100.1-102.3,100.1
		S265.4,445,265.4,389.6C265.4,332,310.7,287.3,367.6,287.3z"/>
	<circle id="XMLID_37_" class="st5" cx="367.6" cy="390.3" r="10.1"/>
	<path id="XMLID_38_" class="st6" d="M384.9,378.8c1.4,2.2,2.9,6.5,2.9,10.8c0,2.2-1.4,6.5-2.9,8.6h2.9h8.6c1.4-2.2,2.2-6.5,2.2-8.6
		c0-4.3-0.7-8.6-2.2-10.8h-8.6H384.9z"/>
	<path id="XMLID_41_" class="st6" d="M88.9,0C76.7,0,66.6,10.1,66.6,22.3v67c0,12.2,10.1,22.3,22.3,22.3s22.3-10.1,22.3-22.3v-67
		C111.3,10.1,101.2,0,88.9,0z M356.1,0c-12.2,0-22.3,10.1-22.3,22.3v67c0,12.2,10.1,22.3,22.3,22.3c12.2,0,22.3-10.1,22.3-22.3v-67
		C378.4,10.1,368.3,0,356.1,0z"/>
	<path id="XMLID_44_" class="st0" d="M88.9,0C76.7,0,66.6,8.6,66.6,22.3V67h44.6V22.3C111.3,8.6,101.2,0,88.9,0z M356.1,0
		c-12.2,0-22.3,8.6-22.3,22.3V67h44.6V22.3C378.4,8.6,368.3,0,356.1,0z"/>
</g>
</svg>
