<svg xmlns="http://www.w3.org/2000/svg" xmlns:xlink="http://www.w3.org/1999/xlink" version="1.2" baseProfile="tiny" x="0px" y="0px" viewBox="0 0 100 115" xml:space="preserve">
  <path d="M20,95h60c1.381,0,2.5-1.119,2.5-2.5V30H85c1.381,0,2.5-1.119,2.5-2.5v-10c0-1.381-1.119-2.5-2.5-2.5H62.5V7.5   C62.5,6.119,61.381,5,60,5H40c-1.381,0-2.5,1.119-2.5,2.5V15H15c-1.381,0-2.5,1.119-2.5,2.5v10c0,1.381,1.119,2.5,2.5,2.5h2.5v62.5   C17.5,93.881,18.619,95,20,95z M77.5,90h-55V30h55V90z M42.5,10h15v5h-15V10z M17.5,20H40h20h22.5v5H80H20h-2.5V20z"/>
  <path d="M50,82.5c11.028,0,20-8.972,20-20c0-10.179-7.65-18.59-17.5-19.826V40c0-0.922-0.507-1.769-1.32-2.204   c-0.813-0.435-1.799-0.388-2.566,0.124l-7.5,5C40.418,43.383,40,44.164,40,45s0.418,1.617,1.113,2.08l7.5,5   c0.418,0.279,0.902,0.42,1.387,0.42c0.405,0,0.81-0.098,1.18-0.296c0.813-0.435,1.32-1.282,1.32-2.204v-2.274   C59.583,48.922,65,55.082,65,62.5c0,8.271-6.729,15-15,15s-15-6.729-15-15c0-1.381-1.119-2.5-2.5-2.5S30,61.119,30,62.5   C30,73.528,38.972,82.5,50,82.5z"/>
</svg>